<svg id="Layer_1" data-name="Layer 1" xmlns="http://www.w3.org/2000/svg" viewBox="0 0 409.6 409.6"><title>phone</title><path d="M959.8,360.6c98.8,0,179.2,80.4,179.2,179.2S1058.6,719,959.8,719,780.6,638.6,780.6,539.8,861,360.6,959.8,360.6m0-25.6C846.7,335,755,426.7,755,539.8s91.7,204.8,204.8,204.8,204.8-91.7,204.8-204.8S1072.9,335,959.8,335ZM1074,608.27l-1.15-3.5c-2.7-8-11.6-16.45-19.8-18.7l-30.27-8.27c-8.2-2.23-19.9.77-25.93,6.8l-10.95,10.95a116.29,116.29,0,0,1-81.77-81.8l10.95-10.95c6-6,9-17.7,6.77-25.93l-8.25-30.27c-2.22-8.2-10.68-17.1-18.72-19.8l-3.45-1.15c-8.07-2.7-19.6,0-25.6,6.05l-16.4,16.4c-2.92,2.9-4.8,11.22-4.8,11.25A193.41,193.41,0,0,0,1039.77,655c.28,0,8.85-1.83,11.78-4.75l16.4-16.4c6-6,8.7-17.5,6-25.55Zm0,0" transform="translate(-755 -335)"/></svg>