<svg xmlns="http://www.w3.org/2000/svg" viewBox="0 0 31.56 31.56"><defs><style>.cls-1{fill:#fff;}</style></defs><title>Asset 4tel</title><g id="Layer_2" data-name="Layer 2"><g id="Layer_4" data-name="Layer 4"><path class="cls-1" d="M15.78,2A13.81,13.81,0,1,1,2,15.78,13.82,13.82,0,0,1,15.78,2m0-2A15.78,15.78,0,1,0,31.56,15.78,15.78,15.78,0,0,0,15.78,0Zm8.8,21.05-.09-.27A2.5,2.5,0,0,0,23,19.34l-2.33-.64a2.28,2.28,0,0,0-2,.52l-.84.84a9,9,0,0,1-6.3-6.3l.84-.84a2.29,2.29,0,0,0,.52-2L12.22,8.6a2.5,2.5,0,0,0-1.44-1.53L10.51,7a2.11,2.11,0,0,0-2,.47L7.27,8.71a2.36,2.36,0,0,0-.37.86,14.9,14.9,0,0,0,15,15.07,2.33,2.33,0,0,0,.91-.37L24.11,23a2.11,2.11,0,0,0,.46-2Zm0,0"/></g></g></svg>