<svg xmlns="http://www.w3.org/2000/svg" xmlns:xlink="http://www.w3.org/1999/xlink" viewBox="0 0 1450.57 1450.57"><defs><style>.cls-1{fill:none;}.cls-2{fill:url(#linear-gradient);}.cls-3{fill:url(#linear-gradient-2);}.cls-4{fill:url(#linear-gradient-3);}.cls-5{fill:url(#linear-gradient-4);}.cls-6{fill:url(#linear-gradient-5);}.cls-7{opacity:0.05;fill:url(#Биосвят);}</style><linearGradient id="linear-gradient" x1="-559.06" y1="-15117.15" x2="-503.4" y2="-15117.15" gradientTransform="matrix(1, 0, 0, -1, 503.11, -15018.57)" gradientUnits="userSpaceOnUse"><stop offset="0" stop-color="#599146"/><stop offset="0.3" stop-color="#6da44b"/><stop offset="1" stop-color="#99cd55"/></linearGradient><linearGradient id="linear-gradient-2" x1="-493.42" y1="-15117.27" x2="-437.76" y2="-15117.27" xlink:href="#linear-gradient"/><linearGradient id="linear-gradient-3" x1="-526.15" y1="-15067.42" x2="-470.49" y2="-15067.42" xlink:href="#linear-gradient"/><linearGradient id="linear-gradient-4" x1="-558.87" y1="-15017.57" x2="-503.22" y2="-15017.57" xlink:href="#linear-gradient"/><linearGradient id="linear-gradient-5" x1="-493.23" y1="-15017.69" x2="-437.58" y2="-15017.69" xlink:href="#linear-gradient"/><pattern id="Биосвят" data-name="Биосвят" width="65.64" height="99.58" patternTransform="translate(493.82 1899.13)" patternUnits="userSpaceOnUse" viewBox="0 0 65.64 99.58"><rect class="cls-1" width="65.64" height="99.58"/><path class="cls-2" d="M27.42,102.07c-1.5,4.69-7.68,6.07-11.28,9.12-3.86,3.27-2.2,9-2.2,9,6.48-3.58,11-11.33,11-11.33-3.26,8.29-10.95,12.88-13.78,14.33a42,42,0,0,0-.52-10.68c14.5-28.16-23.37-39-23.37-39,6.84,6.8,4.66,18,5.85,27.84S6.89,113.19,6.89,113.19C6.42,98.69-3.05,83.8-3.05,83.8c13.15,14.87,12.84,35.44,12.7,38.72a28.68,28.68,0,0,0-5.4-2.93c-10-20.1-32.07-3-32.07-3,6.76-1.05,12.32,5.77,18.35,8.35C-3,127.66,3.06,122,3.06,122c-8.48-5.82-20.95-6.66-20.95-6.66C-2.62,114,9.8,124.6,9.8,124.6l.19-.12,0,.23a21.77,21.77,0,0,0,5.18-3C31.27,121.78,27.42,102.07,27.42,102.07Z"/><path class="cls-3" d="M93.06,102.07c-1.5,4.69-7.68,6.07-11.28,9.12-3.86,3.27-2.2,9-2.2,9,6.48-3.58,11-11.33,11-11.33-3.26,8.29-10.95,12.88-13.78,14.33a42,42,0,0,0-.52-10.68c14.5-28.16-23.37-39-23.37-39,6.84,6.8,4.66,18,5.85,27.84s13.74,11.86,13.74,11.86c-.47-14.5-9.95-29.39-9.95-29.39,13.15,14.87,12.84,35.44,12.7,38.72a28.68,28.68,0,0,0-5.4-2.93c-10-20.1-32.07-3-32.07-3,6.76-1.05,12.32,5.77,18.35,8.35C62.62,127.66,68.7,122,68.7,122c-8.48-5.82-20.95-6.66-20.95-6.66C63,114,75.44,124.6,75.44,124.6l.19-.12,0,.23a21.77,21.77,0,0,0,5.18-3C96.91,121.78,93.06,102.07,93.06,102.07Z"/><path class="cls-4" d="M60.24,52.28C58.74,57,52.55,58.35,49,61.4c-3.86,3.27-2.2,9-2.2,9,6.48-3.58,11-11.33,11-11.33C54.53,67.35,46.84,71.93,44,73.38a42,42,0,0,0-.52-10.68c14.5-28.16-23.37-39-23.37-39,6.84,6.8,4.66,18,5.85,27.84S39.71,63.4,39.71,63.4C39.24,48.9,29.77,34,29.77,34c13.15,14.87,12.84,35.44,12.7,38.72a28.68,28.68,0,0,0-5.4-2.93c-10-20.1-32.07-3-32.07-3,6.76-1.05,12.32,5.77,18.35,8.35,6.46,2.76,12.54-2.86,12.54-2.86-8.48-5.82-20.95-6.66-20.95-6.66,15.26-1.37,27.68,9.22,27.68,9.22l.19-.12,0,.23a21.77,21.77,0,0,0,5.18-3C64.09,72,60.24,52.28,60.24,52.28Z"/><path class="cls-5" d="M27.42,2.49c-1.5,4.69-7.68,6.07-11.28,9.12-3.86,3.27-2.2,9-2.2,9C20.41,17,25,9.26,25,9.26,21.71,17.56,14,22.14,11.19,23.59a42,42,0,0,0-.52-10.68c14.5-28.16-23.37-39-23.37-39,6.84,6.8,4.66,18,5.85,27.84S6.89,13.61,6.89,13.61C6.42-.89-3.05-15.78-3.05-15.78,10.09-.9,9.79,19.66,9.65,22.94A28.68,28.68,0,0,0,4.25,20c-10-20.1-32.07-3-32.07-3,6.76-1.05,12.32,5.77,18.35,8.35C-3,28.08,3.06,22.46,3.06,22.46c-8.48-5.82-20.95-6.66-20.95-6.66C-2.62,14.43,9.8,25,9.8,25L10,24.9l0,.23a21.77,21.77,0,0,0,5.18-3C31.27,22.2,27.42,2.49,27.42,2.49Z"/><path class="cls-6" d="M93.06,2.49c-1.5,4.69-7.68,6.07-11.28,9.12-3.86,3.27-2.2,9-2.2,9C86,17,90.61,9.26,90.61,9.26c-3.26,8.29-10.95,12.88-13.78,14.33a42,42,0,0,0-.52-10.68c14.5-28.16-23.37-39-23.37-39,6.84,6.8,4.66,18,5.85,27.84S72.53,13.61,72.53,13.61c-.47-14.5-9.95-29.39-9.95-29.39C75.73-.9,75.43,19.66,75.29,22.94A28.68,28.68,0,0,0,69.89,20c-10-20.1-32.07-3-32.07-3,6.76-1.05,12.32,5.77,18.35,8.35,6.46,2.76,12.54-2.86,12.54-2.86-8.48-5.82-20.95-6.66-20.95-6.66C63,14.43,75.44,25,75.44,25l.19-.12,0,.23a21.77,21.77,0,0,0,5.18-3C96.91,22.2,93.06,2.49,93.06,2.49Z"/></pattern></defs><title>Фон 1fon</title><g id="Layer_2" data-name="Layer 2"><g id="Layer_7" data-name="Layer 7"><rect id="Фон" class="cls-7" width="1450.57" height="1450.57"/></g></g></svg>